<svg xmlns="http://www.w3.org/2000/svg" aria-hidden="true" focusable="false" data-prefix="fas" data-icon="book" role="img" width="448" height="512"><rect id="backgroundrect" width="100%" height="100%" x="0" y="0" fill="none" stroke="none"/><g class="currentLayer" style=""><title>Layer 1</title><path fill="#33c466" d="M371.5848972797394,313.965213060379 V76.40271306037903 c0,-9.403515625 -7.342730557918548,-16.96875 -16.46967601776123,-16.96875 H130.02964901924133 C93.65911448001862,59.43396306037903 64.15094494819641,89.83630681037903 64.15094494819641,127.30896306037903 v226.25 c0,37.47265625 29.508169531822205,67.875 65.87870407104492,67.875 h225.08557224273682 c9.126945459842682,0 16.46967601776123,-7.565234374999999 16.46967601776123,-16.96875 v-11.3125 c0,-5.302734375 -2.4018277525901794,-10.110546875 -6.1075048565864565,-13.221484375 c-2.8821933031082154,-10.88828125 -2.8821933031082154,-41.926953125 0,-52.815234375 c3.705677103996277,-3.040234375 6.1075048565864565,-7.848046875 6.1075048565864565,-13.150781250000001 zM151.98921704292297,154.17615056037903 c0,-2.333203125 1.8528385519981385,-4.2421875 4.117419004440308,-4.2421875 h145.48213815689087 c2.264580452442169,0 4.117419004440308,1.9089843750000002 4.117419004440308,4.2421875 v14.140625 c0,2.333203125 -1.8528385519981385,4.2421875 -4.117419004440308,4.2421875 H156.10663604736328 c-2.264580452442169,0 -4.117419004440308,-1.9089843750000002 -4.117419004440308,-4.2421875 v-14.140625 zm0,45.25 c0,-2.333203125 1.8528385519981385,-4.2421875 4.117419004440308,-4.2421875 h145.48213815689087 c2.264580452442169,0 4.117419004440308,1.9089843750000002 4.117419004440308,4.2421875 v14.140625 c0,2.333203125 -1.8528385519981385,4.2421875 -4.117419004440308,4.2421875 H156.10663604736328 c-2.264580452442169,0 -4.117419004440308,-1.9089843750000002 -4.117419004440308,-4.2421875 v-14.140625 zm173.892329287529,176.7578125 H130.02964901924133 c-12.146386063098907,0 -21.95956802368164,-10.110546875 -21.95956802368164,-22.625 c0,-12.443750000000001 9.881805610656741,-22.625 21.95956802368164,-22.625 h195.85189731121062 c-1.3038493514060974,12.090234375000001 -1.3038493514060974,33.159765625 0,45.25 z" id="svg_1" class="selected" fill-opacity="1" opacity="1"/></g></svg>